<svg width="74" height="91" viewBox="0 0 74 91" fill="none" xmlns="http://www.w3.org/2000/svg">
<path d="M3 90.16C1.34314 90.16 0 88.8169 0 87.16V3C0 1.34315 1.34315 0 3 0H43.68C52.64 0 59.2667 2.1 63.56 6.3C67.8533 10.5 70 16.4267 70 24.08C70 28.9333 69.02 33.04 67.06 36.4C66.4881 37.3532 65.8605 38.2389 65.1773 39.057C63.4264 41.1538 63.925 45.4612 66.1278 47.0769C67.4264 48.0294 68.5771 49.1371 69.58 50.4C72.1933 53.48 73.5 58.0533 73.5 64.12C73.5 72.8933 71.12 79.4267 66.36 83.72C61.6933 88.0133 54.7867 90.16 45.64 90.16H3ZM19.8095 33.4844C18.0608 35.4123 19.4287 38.5 22.0316 38.5H41.58C46.7133 38.5 50.3533 37.3333 52.5 35C54.74 32.5733 55.86 29.3533 55.86 25.34C55.86 20.6733 54.74 17.22 52.5 14.98C50.4238 12.8173 46.6638 11.6569 41.22 11.4987C40.3799 11.4743 39.5765 11.8326 39.0083 12.4519L28.3401 24.08L19.8095 33.4844ZM19.6527 73.9763C17.945 75.9138 19.3206 78.96 21.9032 78.96H42.42C47.8333 78.96 51.8 77.84 54.32 75.6C56.84 73.2667 58.1 69.2533 58.1 63.56C58.1 58.8933 56.84 55.44 54.32 53.2C52.0666 51.0333 48.0425 49.8725 42.2479 49.7178C41.3799 49.6947 40.5529 50.0762 39.9831 50.7314L28.3401 64.12L19.6527 73.9763Z" fill="url(#paint0_linear_4_75)"/>
<defs>
<linearGradient id="paint0_linear_4_75" x1="32" y1="-17.5" x2="34" y2="113.5" gradientUnits="userSpaceOnUse">
<stop stop-color="#0400FE"/>
<stop offset="1" stop-color="#B786F6"/>
</linearGradient>
</defs>
</svg>
