<svg width="259" height="93" viewBox="0 0 259 93" fill="none" xmlns="http://www.w3.org/2000/svg">
<path d="M97.563 92.024C91.2483 92.024 88.091 89.1653 88.091 83.448V8.568C88.091 5.58134 88.8163 3.40534 90.267 2.04C91.7177 0.67467 94.0217 -0.00799561 97.179 -0.00799561C103.408 -0.00799561 106.523 2.85067 106.523 8.568V83.448C106.523 86.3493 105.798 88.5253 104.347 89.976C102.982 91.3413 100.72 92.024 97.563 92.024Z" fill="url(#paint0_linear_4_72)"/>
<path d="M142.508 83.448C142.508 89.1653 139.521 92.024 133.548 92.024C130.647 92.024 128.343 91.2987 126.636 89.848C124.929 88.3973 124.076 86.264 124.076 83.448V30.584C124.076 20.5147 126.209 12.92 130.476 7.8C134.828 2.59467 141.228 -0.00799561 149.676 -0.00799561C155.905 -0.00799561 161.068 1.272 165.164 3.832C169.26 6.392 171.991 10.0613 173.356 14.84C174.721 10.0613 177.452 6.392 181.548 3.832C185.644 1.272 190.892 -0.00799561 197.292 -0.00799561C205.996 -0.00799561 212.439 2.50934 216.62 7.54401C220.801 12.4933 222.892 20.1733 222.892 30.584V82.168C222.892 85.6667 222.209 88.184 220.844 89.72C219.479 91.256 217.175 92.024 213.932 92.024C210.689 92.024 208.3 91.256 206.764 89.72C205.228 88.0987 204.46 85.5813 204.46 82.168V29.56C204.46 21.112 200.833 16.888 193.58 16.888C189.911 16.888 187.18 18.1253 185.388 20.6C183.596 22.9893 182.7 26.8293 182.7 32.12V80.888C182.7 84.3867 182.017 86.904 180.652 88.44C179.287 89.976 176.983 90.744 173.74 90.744C170.497 90.744 168.108 89.976 166.572 88.44C165.036 86.8187 164.268 84.3013 164.268 80.888V32.12C164.268 21.9653 160.641 16.888 153.388 16.888C146.135 16.888 142.508 21.112 142.508 29.56V83.448Z" fill="url(#paint1_linear_4_72)"/>
<path d="M249.938 92.024C243.623 92.024 240.466 89.1653 240.466 83.448V8.568C240.466 5.58134 241.191 3.40534 242.642 2.04C244.093 0.67467 246.397 -0.00799561 249.554 -0.00799561C255.783 -0.00799561 258.898 2.85067 258.898 8.568V83.448C258.898 86.3493 258.173 88.5253 256.722 89.976C255.357 91.3413 253.095 92.024 249.938 92.024Z" fill="url(#paint2_linear_4_72)"/>
<path d="M3.15985 91C1.50299 91 0.159851 89.6569 0.159851 88V3.84003C0.159851 2.18318 1.503 0.840027 3.15985 0.840027H43.8399C52.7999 0.840027 59.4265 2.94003 63.7199 7.14003C68.0132 11.34 70.1599 17.2667 70.1599 24.92C70.1599 29.7734 69.1799 33.88 67.2199 37.24C66.6479 38.1932 66.0204 39.0789 65.3372 39.897C63.5862 41.9938 64.0849 46.3012 66.2876 47.9169C67.5862 48.8694 68.7369 49.9771 69.7399 51.24C72.3532 54.32 73.6599 58.8934 73.6599 64.96C73.6599 73.7334 71.2799 80.2667 66.5199 84.56C61.8532 88.8534 54.9465 91 45.7999 91H3.15985ZM19.9694 34.3245C18.2206 36.2523 19.5886 39.34 22.1914 39.34H41.7399C46.8732 39.34 50.5132 38.1734 52.6599 35.84C54.8999 33.4134 56.0199 30.1934 56.0199 26.18C56.0199 21.5134 54.8999 18.06 52.6599 15.82C50.5837 13.6573 46.8237 12.4969 41.3799 12.3387C40.5398 12.3143 39.7364 12.6726 39.1682 13.2919L28.5 24.92L19.9694 34.3245ZM19.8125 74.8164C18.1048 76.7538 19.4805 79.8 22.0631 79.8H42.5799C47.9932 79.8 51.9599 78.68 54.4799 76.44C56.9999 74.1067 58.2599 70.0934 58.2599 64.4C58.2599 59.7334 56.9999 56.28 54.4799 54.04C52.2264 51.8733 48.2024 50.7126 42.4077 50.5579C41.5398 50.5347 40.7127 50.9162 40.1429 51.5714L28.5 64.96L19.8125 74.8164Z" fill="url(#paint3_linear_4_72)"/>
<defs>
<linearGradient id="paint0_linear_4_72" x1="173.495" y1="-0.0079954" x2="171.936" y2="111.988" gradientUnits="userSpaceOnUse">
<stop stop-color="#500CDA"/>
<stop offset="1" stop-color="#B786F6"/>
</linearGradient>
<linearGradient id="paint1_linear_4_72" x1="173.495" y1="-0.0079954" x2="171.936" y2="111.988" gradientUnits="userSpaceOnUse">
<stop stop-color="#500CDA"/>
<stop offset="1" stop-color="#B786F6"/>
</linearGradient>
<linearGradient id="paint2_linear_4_72" x1="173.495" y1="-0.0079954" x2="171.936" y2="111.988" gradientUnits="userSpaceOnUse">
<stop stop-color="#500CDA"/>
<stop offset="1" stop-color="#B786F6"/>
</linearGradient>
<linearGradient id="paint3_linear_4_72" x1="36.9099" y1="0.840027" x2="33.4368" y2="110.469" gradientUnits="userSpaceOnUse">
<stop stop-color="#500CDA"/>
<stop offset="1" stop-color="#B786F6"/>
</linearGradient>
</defs>
</svg>
